PathFileType	4	(X/Y/Z)	S240501-1155_P07_T01_0-394.trc
DataRate	CameraRate	NumFrames	NumMarkers	Units	OrigDataRate	OrigDataStartFrame	OrigNumFrames
60.0	60.0	27	13	m	60.0	98	394
Frame#	Time	Nose			LEye			LEar			LShoulder			LElbow			LWrist			LHip			REye			REar			RShoulder			RElbow			RWrist			RHip		
		X1	Y1	Z1	X2	Y2	Z2	X3	Y3	Z3	X4	Y4	Z4	X5	Y5	Z5	X6	Y6	Z6	X7	Y7	Z7	X8	Y8	Z8	X9	Y9	Z9	X10	Y10	Z10	X11	Y11	Z11	X12	Y12	Z12	X13	Y13	Z13

99	1.650	-0.04812	1.65665	0.15749	-0.07578	1.62357	0.17870	-0.04930	1.57396	0.27477	0.10250	1.50733	0.28462	0.29272	1.46716	0.13473	0.11190	1.59152	0.11682	0.53366	1.60220	0.21426	-0.08032	1.68768	0.17841	-0.06694	1.74167	0.27465	0.10136	1.83039	0.31585	0.32930	1.93306	0.25277	0.32072	1.90319	0.03951	0.52496	1.81811	0.21622
100	1.667	-0.04830	1.65711	0.15775	-0.07552	1.62385	0.17904	-0.04939	1.57375	0.27474	0.10292	1.50724	0.28447	0.29309	1.46722	0.13476	0.11250	1.59091	0.11602	0.53366	1.60220	0.21426	-0.08023	1.68799	0.17848	-0.06671	1.74169	0.27454	0.10137	1.83055	0.31552	0.32875	1.93291	0.25311	0.32061	1.90335	0.03956	0.52496	1.81811	0.21622
101	1.683	-0.04881	1.65792	0.15807	-0.07514	1.62440	0.17950	-0.04940	1.57361	0.27476	0.10332	1.50714	0.28460	0.29355	1.46722	0.13487	0.11316	1.59014	0.11476	0.53366	1.60220	0.21426	-0.08020	1.68827	0.17845	-0.06645	1.74166	0.27448	0.10151	1.83090	0.31504	0.32811	1.93254	0.25339	0.32054	1.90350	0.03963	0.52496	1.81811	0.21622
102	1.700	-0.04947	1.65902	0.15850	-0.07475	1.62517	0.17998	-0.04931	1.57362	0.27488	0.10363	1.50700	0.28488	0.29411	1.46717	0.13508	0.11372	1.58942	0.11302	0.53366	1.60220	0.21426	-0.08021	1.68850	0.17837	-0.06621	1.74158	0.27450	0.10176	1.83138	0.31446	0.32744	1.93201	0.25351	0.32057	1.90366	0.03974	0.52496	1.81811	0.21622
103	1.717	-0.05009	1.66027	0.15902	-0.07454	1.62600	0.18037	-0.04919	1.57387	0.27512	0.10389	1.50682	0.28505	0.29480	1.46704	0.13543	0.11412	1.58896	0.11090	0.53366	1.60220	0.21426	-0.08023	1.68876	0.17831	-0.06605	1.74149	0.27464	0.10208	1.83184	0.31393	0.32677	1.93145	0.25344	0.32075	1.90385	0.03989	0.52496	1.81811	0.21622
104	1.733	-0.05055	1.66149	0.15956	-0.07462	1.62673	0.18059	-0.04916	1.57444	0.27545	0.10414	1.50662	0.28497	0.29565	1.46678	0.13600	0.11444	1.58879	0.10843	0.53366	1.60220	0.21426	-0.08024	1.68915	0.17835	-0.06601	1.74148	0.27492	0.10243	1.83213	0.31357	0.32605	1.93090	0.25317	0.32109	1.90405	0.04006	0.52496	1.81811	0.21622
105	1.750	-0.05090	1.66260	0.16004	-0.07499	1.62729	0.18065	-0.04932	1.57534	0.27584	0.10441	1.50645	0.28473	0.29663	1.46631	0.13688	0.11491	1.58882	0.10540	0.53366	1.60220	0.21426	-0.08029	1.68974	0.17859	-0.06609	1.74166	0.27541	0.10276	1.83218	0.31344	0.32522	1.93031	0.25266	0.32151	1.90417	0.04025	0.52496	1.81811	0.21622
106	1.767	-0.05116	1.66356	0.16036	-0.07554	1.62773	0.18066	-0.04970	1.57647	0.27620	0.10470	1.50635	0.28457	0.29767	1.46559	0.13814	0.11581	1.58893	0.10150	0.53366	1.60220	0.21426	-0.08046	1.69054	0.17909	-0.06624	1.74216	0.27613	0.10304	1.83201	0.31346	0.32432	1.92958	0.25187	0.32194	1.90414	0.04042	0.52496	1.81811	0.21622
107	1.783	-0.05127	1.66438	0.16052	-0.07611	1.62817	0.18075	-0.05021	1.57766	0.27645	0.10509	1.50636	0.28464	0.29867	1.46464	0.13970	0.11737	1.58908	0.09655	0.53366	1.60220	0.21426	-0.08077	1.69151	0.17986	-0.06640	1.74303	0.27707	0.10325	1.83174	0.31351	0.32354	1.92874	0.25092	0.32230	1.90389	0.04055	0.52496	1.81811	0.21622
108	1.800	-0.05119	1.66509	0.16059	-0.07661	1.62872	0.18109	-0.05071	1.57873	0.27657	0.10560	1.50646	0.28488	0.29948	1.46354	0.14137	0.11971	1.58922	0.09064	0.53366	1.60220	0.21426	-0.08119	1.69263	0.18080	-0.06651	1.74414	0.27815	0.10341	1.83149	0.31349	0.32318	1.92796	0.25018	0.32258	1.90345	0.04063	0.52496	1.81811	0.21622
109	1.817	-0.05103	1.66574	0.16067	-0.07706	1.62948	0.18172	-0.05106	1.57951	0.27664	0.10622	1.50654	0.28508	0.30003	1.46234	0.14289	0.12272	1.58933	0.08396	0.53366	1.60220	0.21426	-0.08168	1.69381	0.18170	-0.06655	1.74523	0.27917	0.10352	1.83135	0.31337	0.32342	1.92745	0.25008	0.32279	1.90286	0.04068	0.52496	1.81811	0.21622
110	1.833	-0.05102	1.66638	0.16084	-0.07744	1.63035	0.18263	-0.05125	1.57998	0.27678	0.10683	1.50652	0.28507	0.30026	1.46112	0.14405	0.12622	1.58936	0.07675	0.53366	1.60220	0.21426	-0.08216	1.69493	0.18239	-0.06655	1.74608	0.27995	0.10355	1.83129	0.31323	0.32417	1.92718	0.25073	0.32294	1.90217	0.04073	0.52496	1.81811	0.21622
111	1.850	-0.05136	1.66709	0.16116	-0.07779	1.63116	0.18364	-0.05133	1.58018	0.27704	0.10730	1.50632	0.28481	0.30022	1.46003	0.14471	0.13004	1.58927	0.06924	0.53366	1.60220	0.21426	-0.08260	1.69589	0.18280	-0.06654	1.74660	0.28045	0.10347	1.83123	0.31318	0.32528	1.92701	0.25191	0.32305	1.90153	0.04088	0.52496	1.81811	0.21622
112	1.867	-0.05210	1.66789	0.16160	-0.07813	1.63185	0.18461	-0.05142	1.58023	0.27752	0.10757	1.50601	0.28440	0.30008	1.45920	0.14473	0.13414	1.58908	0.06145	0.53366	1.60220	0.21426	-0.08299	1.69665	0.18306	-0.06654	1.74682	0.28080	0.10326	1.83103	0.31330	0.32667	1.92683	0.25320	0.32315	1.90112	0.04117	0.52496	1.81811	0.21622
113	1.883	-0.05318	1.66874	0.16214	-0.07854	1.63249	0.18548	-0.05163	1.58027	0.27836	0.10768	1.50561	0.28389	0.29998	1.45871	0.14400	0.13859	1.58887	0.05321	0.53366	1.60220	0.21426	-0.08332	1.69730	0.18333	-0.06656	1.74686	0.28120	0.10297	1.83068	0.31356	0.32819	1.92663	0.25401	0.32330	1.90103	0.04156	0.52496	1.81811	0.21622
114	1.900	-0.05443	1.66953	0.16279	-0.07910	1.63316	0.18641	-0.05204	1.58040	0.27966	0.10775	1.50511	0.28327	0.29992	1.45850	0.14257	0.14365	1.58875	0.04429	0.53366	1.60220	0.21426	-0.08365	1.69802	0.18378	-0.06666	1.74696	0.28177	0.10266	1.83032	0.31375	0.32960	1.92649	0.25410	0.32351	1.90119	0.04196	0.52496	1.81811	0.21622
115	1.917	-0.05563	1.67016	0.16363	-0.07977	1.63392	0.18746	-0.05257	1.58066	0.28136	0.10789	1.50445	0.28257	0.29979	1.45847	0.14068	0.14952	1.58869	0.03457	0.53366	1.60220	0.21426	-0.08406	1.69893	0.18450	-0.06686	1.74737	0.28259	0.10243	1.83017	0.31358	0.33071	1.92640	0.25381	0.32369	1.90147	0.04229	0.52496	1.81811	0.21622
116	1.933	-0.05662	1.67065	0.16463	-0.08053	1.63473	0.18857	-0.05308	1.58105	0.28324	0.10816	1.50363	0.28182	0.29941	1.45853	0.13872	0.15628	1.58854	0.02414	0.53366	1.60220	0.21426	-0.08460	1.69994	0.18550	-0.06714	1.74818	0.28362	0.10238	1.83035	0.31297	0.33141	1.92636	0.25386	0.32373	1.90173	0.04248	0.52496	1.81811	0.21622
117	1.950	-0.05738	1.67104	0.16568	-0.08134	1.63555	0.18964	-0.05349	1.58160	0.28502	0.10857	1.50273	0.28103	0.29860	1.45867	0.13694	0.16378	1.58820	0.01316	0.53366	1.60220	0.21426	-0.08530	1.70078	0.18668	-0.06735	1.74925	0.28481	0.10250	1.83089	0.31207	0.33159	1.92640	0.25472	0.32356	1.90193	0.04248	0.52496	1.81811	0.21622
118	1.967	-0.05799	1.67137	0.16670	-0.08217	1.63638	0.19068	-0.05381	1.58233	0.28650	0.10913	1.50190	0.28022	0.29734	1.45897	0.13535	0.17162	1.58783	0.00169	0.53366	1.60220	0.21426	-0.08611	1.70131	0.18796	-0.06736	1.75024	0.28610	0.10277	1.83173	0.31116	0.33122	1.92657	0.25652	0.32317	1.90209	0.04214	0.52496	1.81811	0.21622
119	1.983	-0.05858	1.67160	0.16766	-0.08299	1.63718	0.19170	-0.05410	1.58313	0.28769	0.10986	1.50125	0.27942	0.29576	1.45955	0.13375	0.17943	1.58780	-0.01022	0.53366	1.60220	0.21426	-0.08695	1.70160	0.18935	-0.06717	1.75088	0.28735	0.10317	1.83282	0.31047	0.33038	1.92684	0.25900	0.32262	1.90225	0.04132	0.52496	1.81811	0.21622
120	2.000	-0.05927	1.67175	0.16862	-0.08386	1.63795	0.19261	-0.05442	1.58377	0.28868	0.11071	1.50095	0.27857	0.29408	1.46053	0.13189	0.18716	1.58829	-0.02236	0.53366	1.60220	0.21426	-0.08774	1.70185	0.19090	-0.06689	1.75109	0.28838	0.10364	1.83403	0.31007	0.32931	1.92710	0.26165	0.32199	1.90245	0.03998	0.52496	1.81811	0.21622
121	2.017	-0.06007	1.67188	0.16961	-0.08484	1.63868	0.19335	-0.05479	1.58411	0.28946	0.11157	1.50109	0.27757	0.29256	1.46206	0.12964	0.19507	1.58916	-0.03430	0.53366	1.60220	0.21426	-0.08842	1.70225	0.19251	-0.06664	1.75094	0.28910	0.10408	1.83519	0.30998	0.32833	1.92728	0.26394	0.32137	1.90261	0.03819	0.52496	1.81811	0.21622
122	2.033	-0.06094	1.67205	0.17061	-0.08590	1.63931	0.19392	-0.05521	1.58414	0.28990	0.11230	1.50162	0.27645	0.29136	1.46424	0.12699	0.20310	1.59033	-0.04542	0.53366	1.60220	0.21426	-0.08897	1.70279	0.19404	-0.06654	1.75061	0.28957	0.10444	1.83607	0.31007	0.32769	1.92735	0.26559	0.32085	1.90258	0.03610	0.52496	1.81811	0.21622
123	2.050	-0.06182	1.67223	0.17152	-0.08698	1.63976	0.19440	-0.05567	1.58398	0.28988	0.11285	1.50239	0.27531	0.29046	1.46691	0.12401	0.21073	1.59193	-0.05517	0.53366	1.60220	0.21426	-0.08944	1.70337	0.19536	-0.06664	1.75029	0.28989	0.10471	1.83660	0.31022	0.32738	1.92731	0.26658	0.32051	1.90226	0.03395	0.52496	1.81811	0.21622
124	2.067	-0.06266	1.67241	0.17224	-0.08798	1.63994	0.19487	-0.05614	1.58381	0.28944	0.11325	1.50327	0.27425	0.28968	1.46975	0.12087	0.21752	1.59397	-0.06349	0.53366	1.60220	0.21426	-0.08991	1.70388	0.19642	-0.06688	1.75016	0.29021	0.10491	1.83682	0.31038	0.32732	1.92712	0.26705	0.32040	1.90170	0.03229	0.52496	1.81811	0.21622
125	2.083	-0.06341	1.67263	0.17268	-0.08883	1.63989	0.19532	-0.05652	1.58373	0.28882	0.11353	1.50409	0.27328	0.28879	1.47240	0.11773	0.22348	1.59609	-0.07084	0.53366	1.60220	0.21426	-0.09046	1.70422	0.19719	-0.06719	1.75022	0.29066	0.10509	1.83686	0.31055	0.32755	1.92682	0.26715	0.32053	1.90110	0.03181	0.52496	1.81811	0.21622
